<svg width="24" height="19" viewBox="0 0 24 19" fill="none" xmlns="http://www.w3.org/2000/svg">
<path d="M22 0.328949H2C0.895833 0.328949 0 1.22184 0 2.32237V16.9408C0 18.0413 0.895833 18.9342 2 18.9342H22C23.1042 18.9342 24 18.0413 24 16.9408V2.32237C24 1.22184 23.1042 0.328949 22 0.328949ZM7.33333 4.31579C8.80417 4.31579 10 5.50769 10 6.97369C10 8.43968 8.80417 9.63158 7.33333 9.63158C5.8625 9.63158 4.66667 8.43968 4.66667 6.97369C4.66667 5.50769 5.8625 4.31579 7.33333 4.31579ZM12 14.15C12 14.5902 11.5833 14.9474 11.0667 14.9474H3.6C3.08333 14.9474 2.66667 14.5902 2.66667 14.15V13.3526C2.66667 12.032 3.92083 10.9605 5.46667 10.9605H5.675C6.1875 11.1723 6.74583 11.2928 7.33333 11.2928C7.92083 11.2928 8.48333 11.1723 8.99167 10.9605H9.2C10.7458 10.9605 12 12.032 12 13.3526V14.15ZM21.3333 11.9572C21.3333 12.14 21.1833 12.2895 21 12.2895H15C14.8167 12.2895 14.6667 12.14 14.6667 11.9572V11.2928C14.6667 11.11 14.8167 10.9605 15 10.9605H21C21.1833 10.9605 21.3333 11.11 21.3333 11.2928V11.9572ZM21.3333 9.29934C21.3333 9.48207 21.1833 9.63158 21 9.63158H15C14.8167 9.63158 14.6667 9.48207 14.6667 9.29934V8.63487C14.6667 8.45214 14.8167 8.30263 15 8.30263H21C21.1833 8.30263 21.3333 8.45214 21.3333 8.63487V9.29934ZM21.3333 6.64145C21.3333 6.82418 21.1833 6.97369 21 6.97369H15C14.8167 6.97369 14.6667 6.82418 14.6667 6.64145V5.97698C14.6667 5.79425 14.8167 5.64474 15 5.64474H21C21.1833 5.64474 21.3333 5.79425 21.3333 5.97698V6.64145Z" fill="#4F4F4F"/>
</svg>
