<svg width="24" height="24" viewBox="0 0 24 24" fill="none" xmlns="http://www.w3.org/2000/svg">
<path d="M23.3152 16.9606L18.0652 14.7106C17.8409 14.615 17.5916 14.5949 17.3549 14.6532C17.1182 14.7116 16.9068 14.8452 16.7527 15.0341L14.4277 17.8747C10.7788 16.1543 7.84228 13.2178 6.12188 9.5689L8.9625 7.2439C9.15172 7.09 9.28565 6.87864 9.34401 6.64182C9.40237 6.40499 9.38199 6.1556 9.28594 5.9314L7.03594 0.681402C6.93052 0.439719 6.74408 0.242392 6.50876 0.123448C6.27344 0.0045045 6.00399 -0.0286013 5.74687 0.0298396L0.871875 1.15484C0.623986 1.21208 0.402818 1.35166 0.24447 1.55078C0.0861212 1.74991 -5.71036e-05 1.99683 2.83885e-08 2.25125C2.83885e-08 14.2747 9.74531 24.0012 21.75 24.0012C22.0045 24.0014 22.2515 23.9153 22.4507 23.7569C22.65 23.5986 22.7896 23.3773 22.8469 23.1294L23.9719 18.2544C24.0299 17.996 23.9961 17.7255 23.8763 17.4893C23.7564 17.2532 23.558 17.0662 23.3152 16.9606Z" fill="#4F4F4F"/>
</svg>
